<svg xmlns="http://www.w3.org/2000/svg" width="512" height="512" viewBox="0 0 194.755 194.756"><path d="M150.563 20.704C125.042-7.064 81.976-5.207 53.34 16.214c-24.41 18.26-41.657 58.806-21.144 86.398 4.193 5.64 10.337 9.08 17.139 10.477 1.816.373 3.275-.513 3.911-2.221 1.376-3.69 2.844-7.155 3.161-11.106.121-1.507-1.089-2.354-2.346-2.419-18.604-20.433-5.967-45.861 12.163-61.586 16.029-13.901 45.463-26.927 64.303-10.91 13.001 11.053 13.992 31.707 13.369 47.312-.782 19.571-7.62 40.2-27.939 46.425-6.69 2.05-14.431 1.236-18.872-4.655-5.017-6.655-3.408-14.677-1.507-22.016 2.927-11.3 9.864-27.297 3.294-38.475-7.954-13.534-23.975-1.228-28.602 7.886-2.818 5.551-7.894 23.332-.403 27.891-7.96 20.132-13.33 42.256-16.962 63.492-1.631 9.536-3.133 20.03-1.327 29.649.096.51 2.155 7.744 4.215 10.572-.321 1.824 2.37 2.483 3.442 1.048 7.329-9.81 14.836-19.206 18.879-30.913 2.148-6.219 2.946-13.033 4.232-19.469.901-4.508 2.746-9.635 3.213-14.439.029-.005.056-.017.086-.021 6.327 4.861 14.84 8.976 22.358 10.437 11.822 2.297 25.757-2.104 35.413-8.778 1.476-1.021 2.952-2.248 4.375-3.62 4.463-2.973 8.532-6.83 12.01-11.693 20.006-27.975 13.213-70.346-9.238-94.776zm-100.72 81.262c.16.171.328.312.498.436-.106.236-.224.468-.335.702-.24-.313-.492-.617-.737-.928.054-.29.049-.584-.017-.88.202.222.383.448.591.67zM37.422 46.551a69.17 69.17 0 0 0-4.765 10.04 60.068 60.068 0 0 1 4.171-10.768c.252.106.526.173.812.21-.076.171-.144.346-.218.518zm113.746-13.863a3.745 3.745 0 0 0-1.042-.923c-.087-.125-.196-.214-.295-.324-.125-.421-.273-.817-.408-1.228a64.788 64.788 0 0 1 3.232 4.505c-.48-.683-.97-1.361-1.487-2.03z" fill="#839DA5"/></svg>